<?xml version="1.0" encoding="UTF-8"?>
<svg width="207px" height="66px" viewBox="0 0 207 66" version="1.1" xmlns="http://www.w3.org/2000/svg" xmlns:xlink="http://www.w3.org/1999/xlink">
    <!-- Generator: Sketch 48.2 (47327) - http://www.bohemiancoding.com/sketch -->
    <title>Logo-MinisteroDell'Interno</title>
    <desc>Created with Sketch.</desc>
    <defs>
        <radialGradient cx="199.197703%" cy="27.2552266%" fx="199.197703%" fy="27.2552266%" r="194.054794%" gradientTransform="translate(1.991977,0.272552),scale(1.000000,0.265152),translate(-1.991977,-0.272552)" id="radialGradient-1">
            <stop stop-color="#FFFFFF" offset="0%"></stop>
            <stop stop-color="#00684A" offset="100%"></stop>
        </radialGradient>
        <radialGradient cx="-0.795924618%" cy="22.2021636%" fx="-0.795924618%" fy="22.2021636%" r="194.060922%" gradientTransform="translate(-0.007959,0.222022),scale(1.000000,0.324074),translate(0.007959,-0.222022)" id="radialGradient-2">
            <stop stop-color="#FFFFFF" offset="0%"></stop>
            <stop stop-color="#CE0006" offset="100%"></stop>
        </radialGradient>
    </defs>
    <g id="Footer" stroke="none" stroke-width="1" fill="none" fill-rule="evenodd" transform="translate(-139.000000, -47.000000)">
        <g transform="translate(0.000000, -30.000000)" id="Logo-MinisteroDell'Interno">
            <g transform="translate(139.027778, 0.000000)">
                <rect id="rect2986" x="0" y="0" width="210.972222" height="217"></rect>
                <polygon id="polygon2993" fill="url(#radialGradient-1)" fill-rule="nonzero" points="17.5 143 0 136.999861 0 83.0001392 17.5 77"></polygon>
                <g id="g2995" transform="translate(69.027778, 102.000000)" fill="#FFFFFF" fill-rule="nonzero">
                    <path d="M14.8612745,12.873913 L14.8612745,13.4521739 L9.82483066,13.4521739 L9.82483066,12.873913 L11.5080749,12.873913 L11.5080749,1.8725 L7.12425728,13.2459783 L6.85257576,13.2657609 L2.84748812,1.92880435 L2.84748812,11.2669565 C2.84748812,11.9007609 2.99883244,12.3747826 3.30078283,12.6852174 C3.41964349,12.8115217 3.83233363,12.8723913 4.53294712,12.8723913 L4.53294712,13.451413 L0.546316102,13.451413 L0.546316102,12.8723913 C1.22330511,12.8723913 1.62196821,12.816087 1.74230541,12.7042391 C2.08043078,12.4036957 2.24949346,11.9258696 2.24949346,11.2646739 L2.24949346,1.5925 C2.21331848,1.30641304 2.03244355,1.1626087 1.70760695,1.1626087 L0.692492573,1.1626087 L0.692492573,0.584347826 L4.26274213,0.584347826 L7.59748515,10.296087 L11.4032412,0.584347826 L14.8642276,0.584347826 L14.8642276,1.1626087 L13.1802451,1.1626087 L13.1802451,12.873913 L14.8612745,12.873913 Z" id="path2997"></path>
                    <polygon id="path2999" points="22.0733853 12.873913 22.0733853 13.4521739 16.8900267 13.4521739 16.8900267 12.873913 18.5946806 12.873913 18.5946806 1.1626087 16.8900267 1.1626087 16.8900267 0.584347826 22.0733853 0.584347826 22.0733853 1.1626087 20.3879263 1.1626087 20.3879263 12.873913"></polygon>
                    <path d="M35.7187374,0.584347826 L35.7187374,1.1626087 C35.0196004,1.1626087 34.6069103,1.22576087 34.4865731,1.34978261 C34.1720722,1.67315217 34.0148217,2.1525 34.0148217,2.78782609 L34.051735,13.7694565 L33.6368301,13.7694565 L25.9692097,1.5925 L25.9692097,11.2677174 C25.9692097,11.9159783 26.1198158,12.3884783 26.4217662,12.6852174 C26.5428417,12.8115217 26.9540553,12.873913 27.6539305,12.873913 L27.6539305,13.4521739 L23.6495811,13.4521739 L23.6495811,12.873913 C24.3258318,12.873913 24.7244949,12.8176087 24.8455704,12.7057609 C25.1836958,12.4044565 25.3534967,11.9258696 25.3534967,11.2654348 L25.3534967,1.5925 C25.3173217,1.30641304 25.1357086,1.1626087 24.810872,1.1626087 L23.7957576,1.1626087 L23.7957576,0.584347826 L27.4199005,0.584347826 L33.4183036,10.2009783 L33.4183036,2.78782609 C33.4183036,2.1525 33.2492409,1.66706522 32.9103773,1.33076087 C32.7767513,1.21891304 32.3788265,1.1626087 31.714388,1.1626087 L31.714388,0.584347826 L35.7187374,0.584347826 Z" id="path3001"></path>
                    <polygon id="path3003" points="42.2427852 12.873913 42.2427852 13.4521739 37.0594266 13.4521739 37.0594266 12.873913 38.7633422 12.873913 38.7633422 1.1626087 37.0594266 1.1626087 37.0594266 0.584347826 42.2427852 0.584347826 42.2427852 1.1626087 40.5580645 1.1626087 40.5580645 12.873913"></polygon>
                    <path d="M51.9561378,9.34195652 C51.9561378,10.786087 51.3935799,11.8893478 50.2728936,12.6502174 C49.30429,13.3098913 48.0905823,13.6401087 46.6288176,13.6401087 C45.7451144,13.6401087 44.7610071,13.4301087 43.6750193,13.0040217 L43.6919994,10.0358696 L44.2331477,10.0358696 C44.3077124,11.0204348 44.5897296,11.731087 45.0858437,12.1678261 C45.3154441,12.3671739 45.6528313,12.5322826 46.1009581,12.67 C46.5468702,12.8084783 46.9514394,12.8693478 47.315404,12.8556522 C48.1503818,12.8434783 48.8797876,12.6136957 49.5095276,12.1678261 C50.1259789,11.7059783 50.4463859,11.0904348 50.4692721,10.3166304 C50.4692721,9.50706522 50.1946376,8.85956522 49.6446301,8.37413043 C49.0960992,7.88793478 48.3371628,7.58967391 47.3700357,7.47630435 C44.7993969,7.15369565 43.5103862,6.04434783 43.5103862,4.15206522 C43.5103862,2.83271739 43.9998559,1.8298913 44.9765805,1.1451087 C45.8122965,0.547826087 46.8266726,0.248804348 48.0211854,0.248804348 C48.3733378,0.248804348 48.7875045,0.302065217 49.2718063,0.407065217 C49.7546316,0.513586957 50.0647029,0.566086957 50.2049733,0.566086957 C50.3437671,0.566086957 50.4367885,0.4725 50.4877288,0.286086957 L50.9949168,0.286086957 L50.9949168,3.62934783 L50.4515538,3.62934783 C50.3681298,2.70869565 50.0979248,2.04141304 49.6446301,1.63130435 C49.1913354,1.22043478 48.5202525,1.02108696 47.6247371,1.03326087 C45.8602837,1.05913043 44.9920841,1.87402174 45.0164468,3.48021739 C45.0385948,4.91141304 46.0071985,5.72706522 47.91709,5.92565217 C50.6088042,6.22391304 51.9561378,7.36369565 51.9561378,9.34195652 Z" id="path3005"></path>
                    <path d="M63.9891191,0.584347826 L64.0260324,4.375 L63.4834076,4.375 C63.4095811,3.32956522 63.1393761,2.55423913 62.6676248,2.04978261 C62.1958734,1.54532609 61.3682784,1.26228261 60.1863161,1.1998913 L59.3528149,1.1626087 L59.3528149,12.873913 L61.0574688,12.873913 L61.0574688,13.4521739 L56.0188102,13.4521739 L56.0188102,12.873913 L57.7050074,12.873913 L57.7050074,1.1626087 L56.8899629,1.1998913 C55.7190746,1.2501087 54.8996004,1.5148913 54.4344935,1.99423913 C53.9686482,2.47358696 53.6807249,3.26717391 53.5736765,4.375 L53.0480318,4.375 L53.0842068,0.584347826 L63.9891191,0.584347826 Z" id="path3007"></path>
                    <path d="M75.533369,8.98815217 L76.112907,8.98815217 L75.9128372,13.451413 L65.3829635,13.451413 L65.3829635,12.8723913 L67.0876173,12.8723913 L67.0876173,1.1626087 L65.3829635,1.1626087 L65.3829635,0.584347826 L75.622699,0.584347826 L75.6603506,4.375 L75.0977926,4.375 C75.0121539,3.29228261 74.719801,2.49869565 74.2266399,1.99423913 C73.7312641,1.48978261 72.9206491,1.225 71.7970098,1.1998913 L68.6992499,1.1626087 L68.6992499,6.57923913 L70.9110918,6.57923913 C71.4293538,6.57923913 71.8176812,6.42478261 72.0686913,6.11282609 C72.3470172,5.71336957 72.4865493,5.1351087 72.4865493,4.375 L73.048369,4.375 L73.048369,9.54891304 L72.4865493,9.54891304 C72.4865493,8.81391304 72.3381581,8.24097826 72.0406373,7.83086957 C71.744593,7.42 71.3666013,7.21380435 70.9081387,7.21380435 L68.6970351,7.21380435 L68.6970351,12.8731522 L72.087148,12.8168478 C72.4245351,12.8168478 72.8335339,12.7255435 73.3089765,12.5376087 C73.7858957,12.3511957 74.1402629,12.1411957 74.3706016,11.9022826 C75.0985309,11.2053261 75.4846435,10.2321739 75.533369,8.98815217 Z" id="path3009"></path>
                    <path d="M85.6077332,12.4432609 L82.1467469,7.34543478 L81.0430407,7.34543478 L81.0777392,12.8746739 L82.7646747,12.8746739 L82.7646747,13.4536957 L77.7267543,13.4536957 L77.7267543,12.873913 L79.4107368,12.873913 L79.4107368,1.1626087 L77.7267543,1.1626087 L77.7267543,0.584347826 L83.2179694,0.584347826 C84.6789958,0.584347826 85.7893464,0.882608696 86.5527124,1.48065217 C87.3131254,2.07793478 87.6940701,2.87532609 87.6940701,3.87206522 C87.6940701,4.86728261 87.3559447,5.6776087 86.6782175,6.29923913 C86.0270677,6.85923913 85.1692038,7.17652174 84.1053639,7.25032609 L87.82179,12.4440217 C88.0144771,12.693587 88.4426708,12.8472826 89.1078476,12.9096739 L89.1078476,13.4696739 C88.2256209,13.433913 86.8303001,13.433913 84.9204085,13.4696739 L84.9373886,12.873913 L85.4453149,12.873913 C85.6143776,12.8351087 85.7000163,12.7681522 85.7000163,12.676087 C85.7000163,12.5847826 85.6682709,12.5056522 85.6077332,12.4432609 Z M82.6192365,6.80369565 C84.8185279,6.80369565 85.8949183,5.82597826 85.8432398,3.87130435 C85.7959908,2.065 84.846582,1.16184783 82.9979664,1.16184783 L81.0755244,1.16184783 L81.0408259,6.80369565 L82.6192365,6.80369565 Z" id="path3011"></path>
                    <path d="M99.5624183,2.11521739 C100.553908,3.33565217 101.049284,4.93271739 101.049284,6.90641304 C101.049284,8.87934783 100.529545,10.5083696 99.4922831,11.7904348 C98.4535443,13.0725 97.1578892,13.7108696 95.6038414,13.7108696 C94.0505318,13.7108696 92.7187017,13.0595652 91.6076129,11.7501087 C90.518672,10.4338043 89.9900743,8.80326087 90.0129605,6.8676087 C90.0358467,4.93043478 90.5725654,3.34326087 91.6179486,2.10456522 C92.6625936,0.865869565 94.0018063,0.246521739 95.6385398,0.246521739 C97.2767499,0.248043478 98.5842172,0.870434783 99.5624183,2.11521739 Z M95.6127005,13.0603261 C96.7363399,13.0603261 97.5897742,12.5056522 98.1700505,11.3978261 C98.7466355,10.2884783 99.0389884,8.81619565 99.0389884,6.98021739 C99.0389884,5.14423913 98.7857635,3.70315217 98.2785755,2.65695652 C97.6768895,1.43652174 96.7474138,0.826304348 95.4960547,0.826304348 C94.2469103,0.826304348 93.3292469,1.40532609 92.7489706,2.56336957 C92.2676218,3.54717391 92.0254709,5.01641304 92.0254709,6.97108696 C92.0232561,11.0303261 93.2207219,13.0603261 95.6127005,13.0603261 Z" id="path3013"></path>
                    <path d="M12.0152629,27.7207609 C12.0152629,29.4646739 11.4563963,30.9673913 10.3386631,32.2220652 C9.22019162,33.4797826 7.93118093,34.0846739 6.47089275,34.0359783 C4.27160131,33.9598913 2.21036542,33.9484783 0.290876411,33.9971739 L0.290876411,33.4173913 L1.99405377,33.4173913 L1.99405377,21.7068478 L0.290876411,21.7068478 L0.290876411,21.128587 C1.36652852,21.1902174 2.32110517,21.2153261 3.15460636,21.203913 C3.98810755,21.1902174 5.11027035,21.1902174 6.52330957,21.203913 C8.22870172,21.2275 9.5686527,21.8217391 10.5475921,22.9873913 C11.5265315,24.1507609 12.0152629,25.7280435 12.0152629,27.7207609 Z M9.24307784,31.6247826 C9.83516637,30.653913 10.1208749,29.3125 10.1038948,27.5997826 C10.0861765,25.8878261 9.84624034,24.5715217 9.38703951,23.6501087 C8.81857546,22.4669565 7.86473708,21.8217391 6.52330957,21.7068478 C5.43584522,21.6452174 4.46355021,21.6703261 3.6071628,21.7821739 L3.6071628,33.4173913 C4.42737522,33.4942391 5.0460413,33.5284783 5.46463755,33.5284783 C5.87954248,33.5284783 6.22283571,33.5155435 6.48861111,33.4927174 C7.73258764,33.3055435 8.6509893,32.683913 9.24307784,31.6247826 Z" id="path3015"></path>
                    <path d="M24.2305957,29.5331522 L24.8101337,29.5331522 L24.6100639,33.996413 L14.0809284,33.996413 L14.0809284,33.4173913 L15.784844,33.4173913 L15.784844,21.7068478 L14.0809284,21.7068478 L14.0809284,21.128587 L24.3199257,21.128587 L24.3561007,24.9184783 L23.794281,24.9184783 C23.7093806,23.8365217 23.4199807,23.041413 22.9231283,22.5377174 C22.4270143,22.0325 21.6171376,21.7669565 20.495713,21.7441304 L17.3972148,21.7045652 L17.3972148,27.1219565 L19.6083185,27.1219565 C20.128057,27.1219565 20.5149079,26.9667391 20.7666563,26.6555435 C21.0442439,26.2576087 21.1830377,25.6778261 21.1830377,24.9184783 L21.7448574,24.9184783 L21.7448574,30.0931522 L21.1830377,30.0931522 C21.1830377,29.3573913 21.0353847,28.7852174 20.7386022,28.3751087 C20.4432962,27.9634783 20.0653045,27.7572826 19.6068419,27.7572826 L17.3957383,27.7572826 L17.3957383,33.4166304 L20.7843746,33.3626087 C21.1225,33.3626087 21.5300223,33.2690217 22.0076797,33.081087 C22.4845989,32.8961957 22.8382279,32.6846739 23.0685665,32.4472826 C23.7950193,31.7495652 24.1818702,30.7786957 24.2305957,29.5331522 Z" id="path3017"></path>
                    <path d="M36.1365954,29.5331522 L36.7168717,29.5331522 L36.4813651,33.996413 L26.6048559,33.996413 L26.6048559,33.4173913 L28.3102481,33.4173913 L28.3102481,21.7068478 L26.6048559,21.7068478 L26.6048559,21.128587 L31.6250579,21.128587 L31.6250579,21.7068478 L29.9211423,21.7068478 L29.9211423,33.4173913 L32.6940657,33.3626087 C33.0203788,33.3626087 33.424948,33.2690217 33.9092499,33.081087 C34.3913369,32.8961957 34.7493954,32.6846739 34.9775193,32.4472826 C35.701019,31.7495652 36.0878699,30.7786957 36.1365954,29.5331522 Z" id="path3019"></path>
                    <path d="M47.8248069,29.5331522 L48.4050832,29.5331522 L48.1703149,33.996413 L38.2923292,33.996413 L38.2923292,33.4173913 L39.9962448,33.4173913 L39.9962448,21.7068478 L38.2923292,21.7068478 L38.2923292,21.128587 L43.3125312,21.128587 L43.3125312,21.7068478 L41.6086156,21.7068478 L41.6086156,33.4173913 L44.3815389,33.3626087 C44.707852,33.3626087 45.1124213,33.2690217 45.5967231,33.081087 C46.0758571,32.8961957 46.4361304,32.6846739 46.6642543,32.4472826 C47.3892305,31.7495652 47.7775579,30.7786957 47.8248069,29.5331522 Z" id="path3021"></path>
                    <path d="M52.2647326,20.8120652 C52.736484,20.8120652 53.1048782,21.0152174 53.3699153,21.4177174 C53.6356907,21.8217391 53.7693167,22.2706522 53.7693167,22.7644565 C53.7693167,23.2559783 53.5352867,23.7992391 53.0627971,24.3972826 C52.6272207,24.983913 52.1517781,25.381087 51.6320395,25.5918478 L51.4319697,25.1817391 C51.7575446,25.0577174 52.1030526,24.7777174 52.4655407,24.3409783 C52.8265523,23.9057609 53.0074272,23.5192391 53.0074272,23.1836957 C53.0074272,22.9858696 52.9180971,22.8846739 52.7357457,22.8846739 L52.1207709,22.9402174 C51.4570707,22.8534783 51.1218984,22.5438043 51.1218984,22.0058696 C51.1226367,21.2084783 51.5035814,20.8120652 52.2647326,20.8120652 Z" id="path3023"></path>
                    <polygon id="path3025" points="61.5425089 33.4173913 61.5425089 33.9971739 56.3591503 33.9971739 56.3591503 33.4173913 58.0652807 33.4173913 58.0652807 21.7068478 56.3591503 21.7068478 56.3591503 21.128587 61.5425089 21.128587 61.5425089 21.7068478 59.8563116 21.7068478 59.8563116 33.4173913"></polygon>
                    <path d="M75.187861,21.1293478 L75.187861,21.7076087 C74.4879857,21.7076087 74.0752956,21.77 73.9549584,21.8955435 C73.6397193,22.218913 73.4832071,22.6975 73.4832071,23.333587 L73.5193821,34.3167391 L73.1044771,34.3167391 L65.4368568,22.1397826 L65.4368568,31.8119565 C65.4368568,32.4594565 65.5859863,32.9319565 65.8879367,33.2302174 C66.0090122,33.3565217 66.4209641,33.4173913 67.1208393,33.4173913 L67.1208393,33.9971739 L63.1150134,33.9971739 L63.1150134,33.4173913 C63.7927406,33.4173913 64.1914037,33.3626087 64.3117409,33.2507609 C64.649128,32.9494565 64.8196673,32.4723913 64.8196673,31.8096739 L64.8196673,22.1367391 C64.7820157,21.851413 64.6011408,21.7076087 64.2770425,21.7076087 L63.2611898,21.7076087 L63.2611898,21.1293478 L66.886071,21.1293478 L72.8852124,30.7475 L72.8852124,23.333587 C72.8852124,22.6975 72.7161497,22.2128261 72.3772861,21.8757609 C72.2436601,21.7646739 71.8442588,21.7076087 71.1805585,21.7076087 L71.1805585,21.1293478 L75.187861,21.1293478 Z" id="path3027"></path>
                    <path d="M87.2754739,21.1293478 L87.3138636,24.9184783 L86.7712389,24.9184783 C86.6981506,23.8738043 86.4257308,23.0969565 85.9561943,22.5932609 C85.4829664,22.0888043 84.6553714,21.8065217 83.4734091,21.7456522 L82.6391696,21.7053261 L82.6391696,33.4173913 L84.3416087,33.4173913 L84.3416087,33.9971739 L79.3059031,33.9971739 L79.3059031,33.4173913 L80.9906239,33.4173913 L80.9906239,21.7068478 L80.1755793,21.746413 C79.001738,21.7943478 78.1844786,22.0583696 77.7208482,22.5384783 C77.255003,23.018587 76.9670796,23.8121739 76.8592929,24.9192391 L76.3336482,24.9192391 L76.3712998,21.1308696 L87.2754739,21.1293478 Z" id="path3029"></path>
                    <path d="M98.8197237,29.5331522 L99.4,29.5331522 L99.1999302,33.996413 L88.6707947,33.996413 L88.6707947,33.4173913 L90.3761869,33.4173913 L90.3761869,21.7068478 L88.6707947,21.7068478 L88.6707947,21.128587 L98.9112686,21.128587 L98.945967,24.9184783 L98.3856239,24.9184783 C98.3007234,23.8365217 98.0083705,23.041413 97.5129947,22.5377174 C97.0168806,22.0325 96.2077421,21.7669565 95.0848411,21.7441304 L91.9878194,21.7045652 L91.9878194,27.1219565 L94.1981848,27.1219565 C94.7164468,27.1219565 95.1047742,26.9667391 95.3572608,26.6555435 C95.6348485,26.2576087 95.772904,25.6778261 95.772904,24.9184783 L96.335462,24.9184783 L96.335462,30.0931522 L95.772904,30.0931522 C95.772904,29.3573913 95.6245128,28.7852174 95.326992,28.3751087 C95.0331625,27.9634783 94.6544326,27.7572826 94.1952317,27.7572826 L91.9856046,27.7572826 L91.9856046,33.4166304 L95.3742409,33.3626087 C95.7123663,33.3626087 96.1198886,33.2690217 96.597546,33.081087 C97.0744652,32.8961957 97.4273559,32.6846739 97.6576946,32.4472826 C98.3863622,31.7495652 98.7717365,30.7786957 98.8197237,29.5331522 Z" id="path3031"></path>
                    <path d="M108.896303,32.9875 L105.435316,27.8896739 L104.329395,27.8896739 L104.366309,33.4181522 L106.050291,33.4181522 L106.050291,33.9986957 L101.013109,33.9986957 L101.013109,33.4173913 L102.699306,33.4173913 L102.699306,21.7068478 L101.013109,21.7068478 L101.013109,21.128587 L106.504324,21.128587 C107.965351,21.128587 109.075701,21.4283696 109.838329,22.0241304 C110.59948,22.6221739 110.980425,23.4195652 110.980425,24.4170652 C110.980425,25.4130435 110.641561,26.221087 109.966049,26.8427174 C109.312684,27.4027174 108.456297,27.72 107.393195,27.796087 L111.107406,32.9875 C111.300094,33.2370652 111.730502,33.3922826 112.394202,33.4546739 L112.394202,34.0131522 C111.512714,33.9773913 110.116655,33.9773913 108.20824,34.0131522 L108.225958,33.4173913 L108.733884,33.4173913 C108.902947,33.378587 108.987109,33.3131522 108.987109,33.2195652 C108.987109,33.1282609 108.95684,33.0498913 108.896303,32.9875 Z M105.904853,27.3479348 C108.104144,27.3479348 109.181273,26.3709783 109.131809,24.4155435 C109.083822,22.61 108.134413,21.706087 106.285798,21.706087 L104.36557,21.706087 L104.328657,27.3471739 L105.904853,27.3479348 Z" id="path3033"></path>
                    <path d="M125.151422,21.1293478 L125.151422,21.7076087 C124.45007,21.7076087 124.039594,21.77 123.918519,21.8955435 C123.602542,22.218913 123.446768,22.6975 123.446768,23.333587 L123.484419,34.3167391 L123.068038,34.3167391 L115.401894,22.1397826 L115.401894,31.8119565 C115.401894,32.4594565 115.551762,32.9319565 115.85445,33.2302174 C115.973311,33.3565217 116.385263,33.4173913 117.085876,33.4173913 L117.085876,33.9971739 L113.080051,33.9971739 L113.080051,33.4173913 C113.75704,33.4173913 114.155703,33.3626087 114.275302,33.2507609 C114.614165,32.9494565 114.783228,32.4723913 114.783228,31.8096739 L114.783228,22.1367391 C114.746315,21.851413 114.56544,21.7076087 114.240603,21.7076087 L113.22475,21.7076087 L113.22475,21.1293478 L116.848893,21.1293478 L122.848773,30.7475 L122.848773,23.333587 C122.848773,22.6975 122.678234,22.2128261 122.340847,21.8757609 C122.207959,21.7646739 121.807819,21.7076087 121.146334,21.7076087 L121.146334,21.1293478 L125.151422,21.1293478 Z" id="path3035"></path>
                    <path d="M136.133852,22.6602174 C137.123865,23.8806522 137.619241,25.4761957 137.619241,27.451413 C137.619241,29.4251087 137.100979,31.0526087 136.063717,32.3361957 C135.024978,33.6190217 133.72637,34.2573913 132.173798,34.2573913 C130.621227,34.2573913 129.288659,33.6053261 128.17757,32.2973913 C127.090844,30.9780435 126.560031,29.3490217 126.582917,27.4141304 C126.60728,25.4761957 127.142522,23.8897826 128.186429,22.6495652 C129.232551,21.4108696 130.573978,20.7907609 132.210712,20.7907609 C133.848183,20.7907609 135.155651,21.4154348 136.133852,22.6602174 Z M132.182657,33.6053261 C133.305559,33.6053261 134.161208,33.0506522 134.740007,31.9428261 C135.320284,30.8334783 135.61116,29.3604348 135.61116,27.5252174 C135.61116,25.6869565 135.354982,24.2466304 134.850009,23.198913 C134.246108,21.9777174 133.317371,21.3697826 132.067488,21.3697826 C130.816129,21.3697826 129.899204,21.9488043 129.318928,23.1068478 C128.837579,24.0921739 128.596166,25.5606522 128.596166,27.516087 C128.596166,31.5753261 129.792155,33.6053261 132.182657,33.6053261 Z" id="path3037"></path>
                </g>
                <rect id="rect3039" fill="#FFFFFF" fill-rule="nonzero" x="17.5" y="82" width="17.5" height="54"></rect>
                <rect id="rect3046" fill="url(#radialGradient-2)" fill-rule="nonzero" x="35" y="82" width="17.5" height="54"></rect>
            </g>
        </g>
    </g>
</svg>