<?xml version="1.0" encoding="UTF-8"?>
<svg width="209px" height="57px" viewBox="0 0 209 57" version="1.1" xmlns="http://www.w3.org/2000/svg" xmlns:xlink="http://www.w3.org/1999/xlink">
    <!-- Generator: Sketch 48.2 (47327) - http://www.bohemiancoding.com/sketch -->
    <title>Logo-Team</title>
    <desc>Created with Sketch.</desc>
    <defs></defs>
    <g id="Footer" stroke="none" stroke-width="1" fill="none" fill-rule="evenodd" transform="translate(-707.000000, -51.000000)">
        <g transform="translate(0.000000, -30.000000)" id="Logo-Team">
            <g transform="translate(707.777778, 79.000000)">
                <text id="TEAM-PER-LA-TRASFORM" font-family="TitilliumWeb-SemiBold, Titillium Web" font-size="16" font-weight="500" line-spacing="20" fill="#FFFFFF">
                    <tspan x="76.8055556" y="18">TEAM PER LA </tspan>
                    <tspan x="76.8055556" y="38">TRASFORMAZIONE </tspan>
                    <tspan x="76.8055556" y="58">DIGITALE</tspan>
                </text>
                <path d="M65.787037,3 L65.787037,58.0263151" id="Line-5" stroke="#FFFFFF" stroke-linecap="square"></path>
                <g id="dt-logo" transform="translate(0.000000, 2.000000)" fill-rule="nonzero">
                    <path d="M53.5281843,55.8770732 L0.796747967,55.8770732 C0.358536585,55.8770732 0,55.5082927 0,55.057561 L0,0.819512195 C0,0.368780488 0.358536585,0 0.796747967,0 L53.5281843,0 C53.9663957,0 54.3249322,0.368780488 54.3249322,0.819512195 L54.3249322,55.057561 C54.3249322,55.5082927 53.9663957,55.8770732 53.5281843,55.8770732 Z" id="XMLID_16_" fill="#FFFFFF"></path>
                    <ellipse id="XMLID_1_" fill="#00264D" cx="13.1596206" cy="23.7385366" rx="3.61192412" ry="3.71512195"></ellipse>
                    <g id="XMLID_36_" transform="translate(21.777778, 12.565854)" fill="#00264D">
                        <path d="M0.119512195,30.595122 L0.119512195,0.0819512195 L10.1054201,0.0819512195 C20.4498645,0.0819512195 22.7205962,4.61658537 22.7205962,14.764878 C22.7205962,25.1726829 20.7552846,30.6087805 10.1054201,30.6087805 L0.119512195,30.6087805 L0.119512195,30.595122 Z M10.1054201,5.46341463 L6.13495935,5.46341463 L6.13495935,25.2136585 L10.1054201,25.2136585 C15.9482385,25.2136585 16.5192412,21.5395122 16.5192412,14.7512195 C16.5192412,8.07219512 15.9482385,5.46341463 10.1054201,5.46341463 Z" id="XMLID_39_"></path>
                    </g>
                </g>
            </g>
        </g>
    </g>
</svg>