<?xml version="1.0" encoding="UTF-8"?>
<svg width="50px" height="49px" viewBox="0 0 50 49" version="1.1" xmlns="http://www.w3.org/2000/svg" xmlns:xlink="http://www.w3.org/1999/xlink">
    <!-- Generator: Sketch 48.2 (47327) - http://www.bohemiancoding.com/sketch -->
    <title>Shape</title>
    <desc>Created with Sketch.</desc>
    <defs></defs>
    <g id="Page-1" stroke="none" stroke-width="1" fill="none" fill-rule="evenodd">
        <g id="if_github_rounded_394187" fill="#FFFFFF" fill-rule="nonzero">
            <path d="M25.3402,0.9163 C11.7392,0.9163 0.7102,11.943 0.7102,25.5462 C0.7102,36.4283 7.7675,45.6606 17.5537,48.9175 C18.7845,49.1454 19.2366,48.383 19.2366,47.7326 C19.2366,47.1456 19.2139,45.205 19.2032,43.1469 C12.3511,44.637 10.9053,40.2409 10.9053,40.2409 C9.7848,37.3942 8.1706,36.637 8.1706,36.637 C5.9357,35.1083 8.3391,35.1398 8.3391,35.1398 C10.8121,35.3135 12.1146,37.6783 12.1146,37.6783 C14.3113,41.4434 17.8764,40.3548 19.2821,39.7255 C19.5032,38.1338 20.1412,37.0469 20.8458,36.4319 C15.3751,35.8093 9.624,33.6972 9.624,24.2597 C9.624,21.5709 10.5863,19.3736 12.162,17.6487 C11.9063,17.0281 11.0631,14.5232 12.4006,11.1304 C12.4006,11.1304 14.469,10.4688 19.1753,13.6554 C21.1401,13.1096 23.2472,12.8359 25.3403,12.8264 C27.4333,12.8359 29.542,13.1096 31.5103,13.6554 C36.2115,10.4688 38.2768,11.1304 38.2768,11.1304 C39.6174,14.5232 38.7742,17.0281 38.5185,17.6487 C40.0978,19.3736 41.0533,21.5708 41.0533,24.2597 C41.0533,33.7199 35.2915,35.8025 29.8068,36.4124 C30.6902,37.1768 31.4772,38.6756 31.4772,40.9734 C31.4772,44.2689 31.449,46.9213 31.449,47.7326 C31.449,48.3882 31.8922,49.1562 33.1405,48.9144 C42.9217,45.6539 49.9701,36.4248 49.9701,25.5462 C49.9701,11.943 38.9426,0.9163 25.3402,0.9163 Z" id="Shape"></path>
        </g>
    </g>
</svg>