<?xml version="1.0" encoding="UTF-8"?>
<svg width="44px" height="61px" viewBox="0 0 44 61" version="1.1" xmlns="http://www.w3.org/2000/svg" xmlns:xlink="http://www.w3.org/1999/xlink">
    <!-- Generator: Sketch 50 (54983) - http://www.bohemiancoding.com/sketch -->
    <title>certificate</title>
    <desc>Created with Sketch.</desc>
    <defs></defs>
    <g id="Pagine-WIP" stroke="none" stroke-width="1" fill="none" fill-rule="evenodd">
        <g id="Gli-strumenti" transform="translate(-131.000000, -669.000000)" fill="#0BD9D3" fill-rule="nonzero">
            <g id="Piano-di-migrazione" transform="translate(-1.000000, 486.000000)">
                <g id="certificate" transform="translate(132.000000, 183.000000)">
                    <path d="M40.8275819,0 L11.468422,0 C11.4571501,0 11.4461403,0.00130395356 11.4348686,0.00169513962 C11.4238589,0.00208632569 11.4131113,0.00260790711 11.4021017,0.00325988388 C11.36016,0.00599818635 11.3187427,0.0106924192 11.2783738,0.0185161405 C11.2775874,0.0186465359 11.276932,0.0186465359 11.2761456,0.0189073265 C11.2325001,0.02751342 11.1902962,0.039640188 11.1488789,0.0537228865 C11.1414081,0.0563307937 11.1339372,0.059069096 11.1265974,0.0619377939 C11.0876704,0.076281283 11.0496607,0.0925807025 11.0132239,0.111488029 C11.0108646,0.112791983 11.0083743,0.11370475 11.0060151,0.115008704 C10.9677434,0.135350379 10.9314376,0.158560753 10.8964426,0.183596661 C10.8884475,0.18920366 10.8807144,0.195201848 10.8728504,0.201069639 C10.8381175,0.227409499 10.8045641,0.255314106 10.7737632,0.285826619 C10.7736321,0.285957014 10.77337,0.28608741 10.7732389,0.286217805 L0.287824619,10.7178462 C0.287693562,10.7179766 0.28756249,10.718107 0.287431418,10.7182374 C0.256630519,10.7490107 0.228582025,10.7823919 0.202106365,10.8169467 C0.196208308,10.8247704 0.190310266,10.8324638 0.184543296,10.8402875 C0.159378295,10.875103 0.136048256,10.9112226 0.115601695,10.9491676 C0.11429102,10.9517755 0.113111403,10.9543834 0.111800729,10.9569913 C0.0929269853,10.9929804 0.0766745906,11.0304039 0.062257143,11.0688705 C0.0593736656,11.0765639 0.056490173,11.0841268 0.0537377524,11.0919505 C0.0395824336,11.1327643 0.0275242058,11.1744908 0.0188737433,11.2176516 C0.0186116145,11.2192164 0.0184805425,11.2209115 0.0180873417,11.2224763 C0.0104854096,11.2617253 0.00589804194,11.301887 0.00301454938,11.3425704 C0.00222814783,11.3540452 0.00170387508,11.3653896 0.0013106743,11.3768644 C0.0013106743,11.387948 0,11.3986404 0,11.4095936 L0,57.3087587 C0,58.9984218 1.38171546,60.3730496 3.08009046,60.3730496 L40.8275819,60.3730496 C42.525957,60.3730496 43.9076724,58.9984218 43.9076724,57.3087587 L43.9076724,3.06429085 C43.9076724,1.37462784 42.525957,0 40.8275819,0 Z M41.9416572,57.3087587 C41.9416572,57.9199217 41.4418961,58.4171193 40.8275819,58.4171193 L3.08009046,58.4171193 C2.46577624,58.4171193 1.96601518,57.9199217 1.96601518,57.3087587 L1.96601518,12.3875588 L9.37133898,12.3875588 C11.0697141,12.3875588 12.4514295,11.0129309 12.4514295,9.32326792 L12.4514295,1.95593034 L40.8275819,1.95593034 C41.4418961,1.95593034 41.9416572,2.45312782 41.9416572,3.06429085 L41.9416572,57.3087587 Z M10.4854143,3.33890348 L10.4854143,9.32326792 C10.4854143,9.93443095 9.9856532,10.4316284 9.37133898,10.4316284 L3.35611899,10.4316284 L10.4854143,3.33890348 Z M9.37133898,16.5602101 C8.82845665,16.5602101 8.38833144,16.1224729 8.38833144,15.582245 C8.38833144,15.042017 8.82845665,14.6042798 9.37133898,14.6042798 L34.5363335,14.6042798 C35.0792158,14.6042798 35.519341,15.042017 35.519341,15.582245 C35.519341,16.1224729 35.0792158,16.5602101 34.5363335,16.5602101 L9.37133898,16.5602101 Z M9.37133898,21.7760244 C8.82845665,21.7760244 8.38833144,21.3382872 8.38833144,20.7980592 C8.38833144,20.2578313 8.82845665,19.8200941 9.37133898,19.8200941 L34.5363335,19.8200941 C35.0792158,19.8200941 35.519341,20.2578313 35.519341,20.7980592 C35.519341,21.3382872 35.0792158,21.7760244 34.5363335,21.7760244 L9.37133898,21.7760244 Z M9.37133898,26.9918385 C8.82845665,26.9918385 8.38833144,26.5541013 8.38833144,26.0138735 C8.38833144,25.4736455 8.82845665,25.0359083 9.37133898,25.0359083 L34.5363335,25.0359083 C35.0792158,25.0359083 35.519341,25.4736455 35.519341,26.0138735 C35.519341,26.5541013 35.0792158,26.9918385 34.5363335,26.9918385 L9.37133898,26.9918385 Z M9.37133898,32.2076529 C8.82845665,32.2076529 8.38833144,31.7699156 8.38833144,31.2296876 C8.38833144,30.6894596 8.82845665,30.2517224 9.37133898,30.2517224 L34.5363335,30.2517224 C35.0792158,30.2517224 35.519341,30.6894596 35.519341,31.2296876 C35.519341,31.7699156 35.0792158,32.2076529 34.5363335,32.2076529 L9.37133898,32.2076529 Z M9.37133898,37.423467 C8.82845665,37.423467 8.38833144,36.9857298 8.38833144,36.4455019 C8.38833144,35.9052739 8.82845665,35.4675367 9.37133898,35.4675367 L34.5363335,35.4675367 C35.0792158,35.4675367 35.519341,35.9052739 35.519341,36.4455019 C35.519341,36.9857298 35.0792158,37.423467 34.5363335,37.423467 L9.37133898,37.423467 Z M21.9538362,42.7696765 C22.4967186,42.7696765 22.9368438,43.2074138 22.9368438,43.7476418 C22.9368438,44.2878698 22.4967186,44.725607 21.9538362,44.725607 L9.37133898,44.725607 C8.82845665,44.725607 8.38833144,44.2878698 8.38833144,43.7476418 C8.38833144,43.2074138 8.82845665,42.7696765 9.37133898,42.7696765 L21.9538362,42.7696765 Z M21.9538362,47.9854909 C22.4967186,47.9854909 22.9368438,48.4232281 22.9368438,48.9634561 C22.9368438,49.5036839 22.4967186,49.9414211 21.9538362,49.9414211 L9.37133898,49.9414211 C8.82845665,49.9414211 8.38833144,49.5036839 8.38833144,48.9634561 C8.38833144,48.4232281 8.82845665,47.9854909 9.37133898,47.9854909 L21.9538362,47.9854909 Z M30.8664384,40.6833509 C34.0102278,40.6833509 36.5678824,43.227886 36.5678824,46.3555489 C36.5678824,49.4832119 34.0102278,52.0277468 30.8664384,52.0277468 C27.7226491,52.0277468 25.1649943,49.4832119 25.1649943,46.3555489 C25.1649943,43.227886 27.7226491,40.6833509 30.8664384,40.6833509 Z M30.8664384,50.0718165 C32.9261669,50.0718165 34.6018672,48.4047119 34.6018672,46.3555489 C34.6018672,44.3063859 32.9261669,42.6392813 30.8664384,42.6392813 C28.8067098,42.6392813 27.1310096,44.3063859 27.1310096,46.3555489 C27.1310096,48.4047119 28.8067098,50.0718165 30.8664384,50.0718165 Z M30.8664384,44.8560024 C31.6975386,44.8560024 32.3737168,45.5287119 32.3737168,46.3555489 C32.3737168,47.1823859 31.6975386,47.8550955 30.8664384,47.8550955 C30.0353383,47.8550955 29.3591601,47.1823859 29.3591601,46.3555489 C29.3591601,45.5287119 30.0353383,44.8560024 30.8664384,44.8560024 Z" id="Combined-Shape"></path>
                </g>
            </g>
        </g>
    </g>
</svg>